# xmcd
#
# Track frame offsets:
#	150
#	15376
#	32955
#	48387
#	63259
#	74696
#	91435
#	105960
#	126010
#	138817
#	154886
#	168980
#	186261
#	203064
#	216118
#	238362
#	252952
#	268347
#	279835
#	296819
#
# Disc length: 4178 seconds
#
# Revision: 1
# Processed by: cddbd v1.4PL0 Copyright (c) Steve Scherf et al.
# Submitted via: audiograbber 1.80.04
#
DISCID=2c105014
DTITLE=Various Artist - Mary's Country
DYEAR=1900
DGENRE=
TTITLE0=Deana Carter - We Danced Anyway
TTITLE1=Collin Raye - If You Get There Before I Do
TTITLE2=Jo Dee Messina - Heads Carolina, Tails California
TTITLE3=Brian White - Between Now And Forever
TTITLE4=John Michael Montgomery - Sold
TTITLE5=Confederate Railroad - A Bible and a Bus Ticket Home
TTITLE6=Deana Carter - Did I Shave My Legs For This
TTITLE7=Garth Brooks - The River
TTITLE8=John Michael Montgomery - Be My Baby Tonight
TTITLE9=Travis Tritt - Can I Trust You With My Heart
TTITLE10=John MIchael Montgomery - Life's A Dance
TTITLE11=Mark Chestnutt - I Don't Want To Miss A Thing
TTITLE12=Little Texas - Kick a Little
TTITLE13=Kathy Mattea - The Battle Hymn of Love
TTITLE14=Lee Ann Womack - I Hope You Dance
TTITLE15=Nitty Gritty Dirt Band - Dance Little Jean
TTITLE16=Confederate Railroad - Jesus and Mama
TTITLE17=Travis Tritt - Here's a Quarter
TTITLE18=Tim McGraw - It's Your Love
TTITLE19=Garth Brooks - The Dance
EXTD=Mary Miniuk
EXTT0=
EXTT1=
EXTT2=
EXTT3=
EXTT4=
EXTT5=
EXTT6=
EXTT7=
EXTT8=
EXTT9=
EXTT10=
EXTT11=
EXTT12=
EXTT13=
EXTT14=
EXTT15=
EXTT16=
EXTT17=
EXTT18=
EXTT19=
PLAYORDER=
